<svg width="278" height="65" viewBox="0 0 278 65" fill="none" xmlns="http://www.w3.org/2000/svg">
<path d="M226.875 28.0938C230.062 19.0625 237.234 1 240.422 1H264.328C266.453 7.64062 270.544 22.3563 269.906 28.0938V49.6094H202.172L198.984 38.4531L202.172 28.0938H226.875Z" fill="#DC7313"/>
<path d="M269.906 28.0938C270.544 22.3563 266.453 7.64062 264.328 1C257.688 1 243.609 1 240.422 1C237.234 1 230.062 19.0625 226.875 28.0938H269.906ZM269.906 28.0938H202.172L198.984 38.4531M269.906 28.0938V49.6094H202.172L198.984 38.4531M198.984 38.4531H195V20.9219" stroke="#DC7313" stroke-width="2"/>
<circle cx="210.938" cy="50.4062" r="12.3438" fill="white" stroke="black" stroke-width="4"/>
<path d="M239.625 5.78125H263.531L266.719 23.3125H232.453L239.625 5.78125Z" fill="#D9D9D9"/>
<circle cx="257.953" cy="44.8281" r="17.9219" fill="white" stroke="black" stroke-width="4"/>
<circle cx="257.953" cy="44.8281" r="8.76562" fill="black"/>
<path d="M11.256 46.748C10.892 46.748 10.304 46.706 9.492 46.622C8.68 46.538 7.77 46.426 6.762 46.286C5.754 46.118 4.774 45.936 3.822 45.74C2.87 45.516 2.058 45.264 1.386 44.984C0.742 44.704 0.35 44.41 0.21 44.102C0.126 43.878 0.084 43.682 0.084 43.514C0.084 43.458 0.504 42.674 1.344 41.162C2.184 39.678 2.604 38.6 2.604 37.928C2.604 37.816 2.562 37.634 2.478 37.382C2.394 37.13 2.352 36.934 2.352 36.794C2.352 36.542 2.464 36.304 2.688 36.08C2.912 35.828 3.15 35.702 3.402 35.702C3.598 35.702 3.976 35.968 4.536 36.5C5.236 37.144 6.034 37.704 6.93 38.18C7.826 38.628 8.764 38.852 9.744 38.852C11.116 38.852 11.802 38.502 11.802 37.802C11.802 37.494 11.62 37.242 11.256 37.046C10.892 36.85 10.71 36.724 10.71 36.668C10.71 36.472 10.948 36.374 11.424 36.374C11.732 36.374 12.026 36.542 12.306 36.878C12.586 37.186 12.726 37.494 12.726 37.802C12.726 38.362 12.404 38.852 11.76 39.272C11.144 39.664 10.542 39.86 9.954 39.86C8.162 39.86 6.146 39.09 3.906 37.55C3.878 37.606 3.766 37.872 3.57 38.348C3.402 38.824 3.136 39.51 2.772 40.406C2.24 41.75 1.974 42.66 1.974 43.136C1.974 43.556 2.156 43.822 2.52 43.934C3.472 43.066 4.648 42.632 6.048 42.632C6.356 42.632 6.79 42.674 7.35 42.758C7.938 42.842 8.372 42.884 8.652 42.884C9.492 42.884 10.388 42.52 11.34 41.792C12.236 41.064 13.524 40.7 15.204 40.7C16.548 40.7 17.22 40.028 17.22 38.684C17.22 38.488 17.206 38.18 17.178 37.76C17.15 37.34 17.136 37.018 17.136 36.794C17.136 35.254 17.948 34.106 19.572 33.35C19.096 32.622 18.312 32.048 17.22 31.628C17.22 32.3 16.982 32.832 16.506 33.224C16.058 33.588 15.498 33.77 14.826 33.77C14.602 33.77 14.266 33.714 13.818 33.602C13.37 33.49 13.048 33.434 12.852 33.434C12.376 33.434 11.914 33.784 11.466 34.484C11.018 35.184 10.528 35.534 9.996 35.534C9.408 35.534 8.918 35.338 8.526 34.946C8.162 34.526 7.98 34.022 7.98 33.434C7.98 32.846 8.302 32.356 8.946 31.964C9.534 31.572 9.94 30.97 10.164 30.158L10.584 29.612C10.36 29.108 10.248 28.716 10.248 28.436C10.248 27.036 11.242 26.336 13.23 26.336C14.686 26.336 16.03 26.784 17.262 27.68C17.318 27.512 17.43 27.316 17.598 27.092C17.766 26.84 17.962 26.574 18.186 26.294C17.15 25.594 16.632 24.712 16.632 23.648C16.632 23.06 16.912 22.402 17.472 21.674C16.996 21.534 16.506 21.422 16.002 21.338C15.498 21.226 14.994 21.156 14.49 21.128C14.014 22.36 13.062 23.27 11.634 23.858C10.878 24.166 10.276 24.474 9.828 24.782C9.38 25.09 9.072 25.384 8.904 25.664C8.848 25.776 8.792 26 8.736 26.336C8.68 26.644 8.624 27.078 8.568 27.638C8.484 28.45 8.092 29.038 7.392 29.402C6.692 29.738 5.978 29.906 5.25 29.906C4.158 29.906 3.234 29.472 2.478 28.604C2.45 28.8 2.422 28.982 2.394 29.15C2.394 29.318 2.394 29.486 2.394 29.654C2.394 30.662 2.562 31.502 2.898 32.174C3.234 32.818 3.71 33.378 4.326 33.854C4.942 34.302 5.642 34.75 6.426 35.198C6.65 35.31 6.958 35.436 7.35 35.576C7.77 35.688 8.176 35.8 8.568 35.912C8.988 35.996 9.296 36.08 9.492 36.164C9.632 36.22 9.702 36.276 9.702 36.332C9.702 36.5 9.408 36.584 8.82 36.584C7.532 36.584 6.3 36.276 5.124 35.66C3.948 35.044 2.982 34.204 2.226 33.14C1.498 32.076 1.134 30.872 1.134 29.528C1.134 27.456 1.666 25.664 2.73 24.152C3.794 22.612 5.18 21.422 6.888 20.582C8.596 19.742 10.43 19.322 12.39 19.322C12.698 19.322 13.202 19.378 13.902 19.49C14.63 19.602 15.428 19.77 16.296 19.994C17.192 20.19 18.046 20.428 18.858 20.708C19.698 20.96 20.384 21.24 20.916 21.548C21.448 21.856 21.714 22.164 21.714 22.472C21.714 22.696 21.518 23.088 21.126 23.648C20.874 24.012 20.664 24.292 20.496 24.488C20.356 24.656 20.286 24.754 20.286 24.782C20.006 25.23 19.782 25.762 19.614 26.378C19.446 26.966 19.292 27.624 19.152 28.352C19.04 29.052 18.732 29.402 18.228 29.402C17.668 29.402 17.304 29.052 17.136 28.352C16.128 27.848 14.98 27.596 13.692 27.596C12.32 27.596 11.634 27.764 11.634 28.1C11.634 28.352 12.236 28.702 13.44 29.15C14.14 29.402 14.84 29.654 15.54 29.906C16.268 30.13 16.982 30.354 17.682 30.578C19.25 31.194 20.426 31.978 21.21 32.93C21.994 33.854 22.386 35.198 22.386 36.962C22.386 39.118 21.868 40.924 20.832 42.38C19.824 43.836 18.48 44.928 16.8 45.656C15.12 46.384 13.272 46.748 11.256 46.748ZM33.8126 47.504C31.5446 47.504 29.2906 46.734 27.0506 45.194C24.2226 43.29 22.8086 40.14 22.8086 35.744C22.8086 34.204 23.0746 32.72 23.6066 31.292C24.1666 29.864 24.9366 28.59 25.9166 27.47C26.8966 26.322 28.0586 25.426 29.4026 24.782C30.7746 24.11 32.2586 23.774 33.8546 23.774C36.1226 23.774 37.9986 24.264 39.4826 25.244C40.9666 26.196 42.2126 27.638 43.2206 29.57C43.6686 30.41 44.0046 31.32 44.2286 32.3C44.4806 33.252 44.6066 34.288 44.6066 35.408C44.6066 37.536 44.1866 39.524 43.3466 41.372C42.5066 43.22 41.2746 44.704 39.6506 45.824C38.0546 46.944 36.1086 47.504 33.8126 47.504ZM33.8126 46.202C33.4486 45.586 33.2666 44.802 33.2666 43.85C33.2666 42.562 33.6726 41.554 34.4846 40.826C34.3446 40.798 34.2186 40.784 34.1066 40.784C33.9946 40.784 33.8966 40.784 33.8126 40.784C33.0286 40.784 32.3146 40.532 31.6706 40.028C31.0546 39.524 30.5646 38.866 30.2006 38.054C29.8366 37.214 29.6546 36.318 29.6546 35.366C29.6546 35.254 29.5286 35.142 29.2766 35.03C29.0246 34.89 28.7586 34.75 28.4786 34.61C28.1986 34.442 28.0166 34.274 27.9326 34.106C27.8486 33.882 27.8066 33.616 27.8066 33.308C27.8066 32.328 28.0866 31.39 28.6466 30.494C28.9546 30.018 29.6966 29.78 30.8726 29.78C31.1526 29.78 31.4886 29.794 31.8806 29.822C32.3006 29.85 32.6926 29.878 33.0566 29.906C33.4486 29.934 33.7006 29.948 33.8126 29.948C35.0166 29.948 36.0106 30.508 36.7946 31.628C36.7386 30.816 36.6826 30.004 36.6266 29.192C36.5986 28.352 36.5566 27.526 36.5006 26.714C36.3046 25.622 35.4226 25.076 33.8546 25.076C32.9306 25.076 32.1186 25.384 31.4186 26C30.7186 26.616 30.0186 27.246 29.3186 27.89C28.4786 28.674 27.7646 29.332 27.1766 29.864C26.6166 30.368 26.2246 30.774 26.0006 31.082C24.8806 32.51 24.3206 33.952 24.3206 35.408C24.3206 35.8 24.4186 36.276 24.6146 36.836C24.8106 37.396 25.0626 37.942 25.3706 38.474C25.6786 39.006 26.0006 39.426 26.3366 39.734C26.5046 39.874 26.7006 40.028 26.9246 40.196C27.1766 40.336 27.4566 40.462 27.7646 40.574C28.7726 40.938 29.2766 41.61 29.2766 42.59C29.2766 42.73 29.2486 42.94 29.1926 43.22C29.1646 43.472 29.1506 43.654 29.1506 43.766C29.1506 44.186 29.3326 44.55 29.6966 44.858C30.0606 45.166 30.4946 45.418 30.9986 45.614C31.5306 45.81 32.0486 45.964 32.5526 46.076C33.0846 46.16 33.5046 46.202 33.8126 46.202ZM33.8126 39.482C34.5406 39.482 35.1846 39.104 35.7446 38.348C36.3326 37.564 36.6266 36.57 36.6266 35.366C36.6266 34.806 36.5286 34.218 36.3326 33.602C36.1366 32.958 35.8286 32.412 35.4086 31.964C35.0166 31.516 34.4846 31.292 33.8126 31.292C33.1686 31.292 32.6366 31.516 32.2166 31.964C31.7966 32.412 31.4886 32.958 31.2926 33.602C31.0966 34.218 30.9986 34.806 30.9986 35.366C30.9986 36.57 31.2786 37.564 31.8386 38.348C32.4266 39.104 33.0846 39.482 33.8126 39.482ZM39.9866 43.514C40.0146 43.514 40.0566 43.486 40.1126 43.43C42.2406 41.302 43.3046 38.628 43.3046 35.408C43.3046 35.352 43.2766 35.324 43.2206 35.324C43.2206 35.324 42.8146 35.576 42.0026 36.08C41.1626 36.612 40.4626 36.878 39.9026 36.878C39.1186 36.878 38.4606 36.444 37.9286 35.576C37.9566 36.052 37.9846 36.542 38.0126 37.046C38.0686 37.522 38.0966 37.998 38.0966 38.474C38.0966 39.258 38.0126 39.846 37.8446 40.238C38.4326 40.546 38.9086 41.162 39.2726 42.086C39.6366 43.038 39.8746 43.514 39.9866 43.514Z" fill="#DC7313"/>
<path d="M52.3392 46.748C51.6392 46.72 50.8692 46.636 50.0292 46.496C49.2172 46.356 48.4892 46.076 47.8452 45.656C47.2012 45.236 46.7672 44.634 46.5432 43.85C46.5152 43.71 46.4872 43.528 46.4592 43.304C46.4592 43.08 46.4592 42.786 46.4592 42.422C46.4592 41.89 46.4732 41.246 46.5012 40.49C46.5292 39.706 46.5852 38.796 46.6692 37.76C46.9492 33.224 47.1172 30.172 47.1732 28.604L46.4592 28.562C46.0112 28.534 45.8012 28.296 45.8292 27.848L46.0812 24.362C46.1372 23.942 46.3752 23.746 46.7952 23.774L47.5092 23.816V23.396C47.5372 23.284 47.5512 23.172 47.5512 23.06C47.5512 22.948 47.5512 22.836 47.5512 22.724C47.5512 21.884 47.3552 21.1 46.9632 20.372V20.33C46.9632 20.162 47.0332 20.022 47.1732 19.91C47.3412 19.77 47.5092 19.714 47.6772 19.742L50.9112 20.12L55.1532 20.288C55.6012 20.288 55.8112 20.512 55.7832 20.96L55.5312 24.362L56.4972 24.446C56.9732 24.502 57.1692 24.74 57.0852 25.16L56.6652 27.722C56.5812 28.17 56.1472 28.394 55.3632 28.394C55.1672 28.394 54.9432 28.38 54.6912 28.352C54.4672 28.324 54.2432 28.282 54.0192 28.226C53.9072 29.346 53.7812 30.438 53.6412 31.502C53.5292 32.566 53.4172 33.63 53.3052 34.694C53.1372 37.13 53.0532 38.95 53.0532 40.154C53.0532 40.518 53.0532 40.826 53.0532 41.078C53.0812 41.302 53.1092 41.47 53.1372 41.582C53.1932 41.61 53.4032 41.652 53.7672 41.708C54.1312 41.736 54.6352 41.778 55.2792 41.834C55.7552 41.89 55.9512 42.128 55.8672 42.548L55.4892 44.69C55.5172 44.83 55.5312 44.97 55.5312 45.11C55.5312 45.25 55.5312 45.376 55.5312 45.488C55.5312 46.132 55.2932 46.538 54.8172 46.706C54.7332 46.734 53.9072 46.748 52.3392 46.748ZM52.4232 45.446C52.8992 45.39 53.3612 45.11 53.8092 44.606C54.2572 44.074 54.4952 43.57 54.5232 43.094C53.9912 43.038 53.5572 42.982 53.2212 42.926C52.9132 42.87 52.6892 42.814 52.5492 42.758C52.0172 42.506 51.7792 41.918 51.8352 40.994L52.0872 34.652L52.7592 27.554C52.8152 27.078 53.0532 26.868 53.4732 26.924C53.5012 26.952 53.6412 26.994 53.8932 27.05C54.1452 27.078 54.3412 27.092 54.4812 27.092C55.2932 27.092 55.7132 26.63 55.7412 25.706C55.6852 25.706 55.5452 25.734 55.3212 25.79C55.0972 25.818 54.9012 25.832 54.7332 25.832C54.2292 25.832 53.9772 25.608 53.9772 25.16C53.9772 25.076 54.0052 24.922 54.0612 24.698C54.2292 24.054 54.3132 23.48 54.3132 22.976C54.3132 21.94 53.9072 21.422 53.0952 21.422H51.6672L49.0212 21.17C49.1612 21.394 49.3012 21.604 49.4412 21.8C49.6092 21.996 49.7492 22.192 49.8612 22.388L51.4992 23.816C52.0592 24.432 52.3392 24.95 52.3392 25.37C52.3392 25.51 52.2552 25.748 52.0872 26.084C51.9472 26.42 51.6812 26.84 51.2892 27.344C50.4772 28.408 50.0712 29.108 50.0712 29.444C50.0712 29.724 50.3512 30.256 50.9112 31.04C51.4992 31.88 51.7932 32.426 51.7932 32.678C51.7932 33.294 51.3592 33.602 50.4912 33.602C49.9872 33.602 49.2032 33.392 48.1392 32.972L47.9292 36.5L47.8452 37.256V37.508C47.8452 37.704 47.8872 37.83 47.9712 37.886C48.0272 37.858 48.1112 37.844 48.2232 37.844C48.8112 37.844 49.3152 38.11 49.7352 38.642C50.1832 39.174 50.5192 39.776 50.7432 40.448C50.9952 41.12 51.1212 41.68 51.1212 42.128C51.1212 43.024 50.5892 43.472 49.5252 43.472C48.9092 43.472 48.2792 43.234 47.6352 42.758C47.7752 43.71 48.4192 44.438 49.5672 44.942C50.5752 45.418 51.5272 45.586 52.4232 45.446ZM60.3921 46.958C59.9441 46.958 59.7201 46.748 59.7201 46.328C59.7201 42.968 59.7201 40.392 59.7201 38.6C59.7201 36.78 59.7061 35.744 59.6781 35.492C59.6501 34.932 59.5941 33.896 59.5101 32.384C59.4261 30.872 59.2861 28.87 59.0901 26.378C59.0901 26.154 58.8241 25.818 58.2921 25.37C57.7881 24.922 57.5081 24.572 57.4521 24.32C57.4521 24.124 57.5221 23.956 57.6621 23.816C57.7741 23.676 57.9141 23.606 58.0821 23.606C58.5021 23.634 58.9221 23.662 59.3421 23.69C59.7621 23.69 60.1821 23.69 60.6021 23.69C62.0861 23.69 63.5841 23.606 65.0961 23.438H65.2221C65.5581 23.438 65.7261 23.578 65.7261 23.858C65.7261 24.39 65.3901 24.656 64.7181 24.656C64.2981 24.684 63.7521 24.698 63.0801 24.698C62.4361 24.698 61.6661 24.712 60.7701 24.74C60.7421 24.74 60.6721 24.74 60.5601 24.74C60.4481 24.74 60.2941 24.726 60.0981 24.698C59.4821 24.698 59.1741 24.768 59.1741 24.908C59.1741 25.076 59.5521 25.44 60.3081 26L60.3921 27.764C61.2881 26.616 62.0861 26.042 62.7861 26.042C64.0461 26.042 64.7321 27.526 64.8441 30.494C65.1801 29.682 65.7821 29.276 66.6501 29.276C67.5741 29.276 68.6521 29.71 69.8841 30.578L69.6741 24.194C69.0581 24.39 68.5121 24.74 68.0361 25.244C67.5881 25.72 67.1681 26.35 66.7761 27.134C66.6641 27.386 66.5101 27.512 66.3141 27.512C66.0061 27.512 65.8521 27.302 65.8521 26.882C65.8521 26.798 65.8801 26.672 65.9361 26.504C66.0761 26.112 66.4121 25.398 66.9441 24.362C67.8401 23.41 68.9321 22.878 70.2201 22.766H70.3461C70.7381 22.766 70.9341 22.976 70.9341 23.396C70.9061 23.704 70.8921 24.012 70.8921 24.32C70.8921 24.6 70.8921 24.894 70.8921 25.202C70.8921 26.322 70.9201 27.372 70.9761 28.352C71.0601 29.332 71.1441 30.27 71.2281 31.166V31.292C71.2281 31.656 71.0181 31.838 70.5981 31.838C69.6741 31.866 68.9881 31.978 68.5401 32.174C68.0921 32.37 67.7981 32.706 67.6581 33.182C67.5181 33.63 67.4481 34.288 67.4481 35.156C67.4481 35.352 67.4481 35.646 67.4481 36.038C67.4481 36.402 67.4341 36.864 67.4061 37.424C67.3781 37.984 67.3501 38.488 67.3221 38.936C67.3221 39.356 67.3221 39.72 67.3221 40.028C67.3501 41.008 67.3921 41.988 67.4481 42.968C67.5321 43.92 67.6301 44.872 67.7421 45.824V45.908C67.7421 46.216 67.5321 46.412 67.1121 46.496L64.0881 46.958H60.3921ZM61.0221 45.614L64.0461 45.488C64.1581 45.124 64.2561 44.774 64.3401 44.438C64.4241 44.074 64.5221 43.71 64.6341 43.346C64.9981 42.366 65.5581 41.89 66.3141 41.918L66.1461 37.34C65.4181 35.94 64.9561 34.666 64.7601 33.518C64.7321 33.798 64.6621 34.316 64.5501 35.072C64.4381 35.828 64.2841 36.64 64.0881 37.508C63.9201 38.376 63.7241 39.132 63.5001 39.776C63.3041 40.392 63.0941 40.7 62.8701 40.7C62.2821 40.7 61.6101 39.482 60.8541 37.046C60.7981 37.662 60.7561 38.278 60.7281 38.894C60.7001 39.482 60.6861 40.084 60.6861 40.7C60.6861 41.652 60.7141 42.534 60.7701 43.346C60.8261 44.158 60.9101 44.914 61.0221 45.614ZM78.9584 47.84C77.5024 47.84 76.2704 47.504 75.2624 46.832C74.2824 46.132 73.5264 45.208 72.9944 44.06C72.4624 42.884 72.1964 41.61 72.1964 40.238C72.1964 38.586 72.6724 37.144 73.6244 35.912C74.6884 34.512 76.2704 33.504 78.3704 32.888C78.8464 32.776 79.4204 32.636 80.0924 32.468C80.7924 32.3 81.5904 32.104 82.4864 31.88H82.5704C82.5984 31.74 82.6124 31.6 82.6124 31.46C82.6404 31.32 82.6544 31.152 82.6544 30.956C82.6544 30.816 82.6544 30.676 82.6544 30.536C82.6544 30.396 82.6404 30.256 82.6124 30.116C82.5284 29.276 82.4304 28.758 82.3184 28.562C82.0944 28.366 81.8564 28.268 81.6044 28.268C80.8764 28.268 80.5824 28.926 80.7224 30.242V30.368C80.7224 30.732 80.5124 30.914 80.0924 30.914C79.3924 30.83 78.6924 30.788 77.9924 30.788C77.2924 30.788 76.5924 30.83 75.8924 30.914C75.2204 30.998 74.5204 31.11 73.7924 31.25H73.7084C73.3724 31.25 73.1764 31.04 73.1204 30.62C72.8684 26.056 75.8364 23.578 82.0244 23.186C82.2204 23.158 82.4024 23.144 82.5704 23.144C82.7384 23.144 82.9204 23.144 83.1164 23.144C85.3284 23.144 87.0224 23.606 88.1984 24.53C88.7584 24.978 89.2344 25.566 89.6264 26.294C90.0184 26.994 90.2844 27.834 90.4244 28.814C90.4804 29.206 90.5504 29.906 90.6344 30.914C90.7184 31.922 90.8024 33.21 90.8864 34.778C90.9144 35.534 90.9564 36.416 91.0124 37.424C91.0964 38.404 91.2084 39.426 91.3484 40.49C91.5164 41.554 91.7264 42.562 91.9784 43.514C92.2304 44.438 92.5664 45.208 92.9864 45.824C93.0984 45.964 93.0704 46.118 92.9024 46.286C92.7624 46.426 92.5804 46.496 92.3564 46.496L85.7624 46.16C85.5664 46.16 85.4684 45.964 85.4684 45.572C85.4684 45.012 85.7624 44.76 86.3504 44.816L91.3904 45.236C90.3544 44.256 89.7664 42.66 89.6264 40.448C89.5984 39.524 89.5844 38.6 89.5844 37.676C89.5844 36.752 89.5844 35.814 89.5844 34.862C89.5844 34.554 89.4584 34.4 89.2064 34.4C89.1504 34.4 89.0384 34.414 88.8704 34.442C88.7304 34.47 88.5204 34.54 88.2404 34.652C87.9324 34.764 87.6524 34.82 87.4004 34.82C87.2324 34.82 87.1204 34.806 87.0644 34.778C85.5524 34.05 84.7964 32.902 84.7964 31.334C84.7964 30.466 85.0624 29.64 85.5944 28.856C85.7624 28.604 85.8464 28.324 85.8464 28.016C85.8464 27.26 85.2864 26.448 84.1664 25.58C83.1864 24.796 82.5004 24.432 82.1084 24.488C79.9244 24.628 78.1744 25.062 76.8584 25.79C76.1024 26.21 75.7244 26.644 75.7244 27.092C75.7244 27.568 76.1584 28.03 77.0264 28.478C77.4744 29.15 78.2724 29.542 79.4204 29.654C79.5044 27.89 80.2464 27.008 81.6464 27.008C82.4024 27.008 82.9484 27.204 83.2844 27.596C83.6204 27.988 83.8164 28.478 83.8724 29.066C83.9564 29.654 83.9984 30.256 83.9984 30.872C83.9984 32.076 83.7744 32.776 83.3264 32.972C83.1024 33.084 82.7944 33.196 82.4024 33.308C82.0384 33.42 81.5904 33.532 81.0584 33.644C79.8544 33.896 79.0844 34.064 78.7484 34.148C78.4964 34.232 78.0624 34.4 77.4464 34.652C76.8304 34.904 76.2564 35.212 75.7244 35.576C75.2204 35.912 74.9684 36.262 74.9684 36.626C74.9684 36.878 75.2764 37.144 75.8924 37.424C76.6204 37.788 77.2224 38.264 77.6984 38.852C78.2024 39.412 78.4544 40.14 78.4544 41.036C78.4544 41.4 78.4124 41.806 78.3284 42.254C78.2444 42.674 78.0904 43.136 77.8664 43.64C77.7544 43.92 77.4464 44.102 76.9424 44.186C76.4384 44.27 76.2144 44.424 76.2704 44.648C76.3824 45.012 76.8024 45.432 77.5304 45.908C78.2584 46.384 78.8604 46.594 79.3364 46.538C81.4924 46.398 82.9064 45.558 83.5784 44.018C83.7184 43.71 83.9564 43.556 84.2924 43.556C84.8244 43.556 85.0064 43.794 84.8384 44.27C84.7824 44.466 84.6424 44.718 84.4184 45.026C84.2224 45.306 83.9564 45.67 83.6204 46.118C82.3884 47.266 80.8344 47.84 78.9584 47.84ZM81.6884 43.22C80.8204 43.22 80.1204 42.898 79.5884 42.254C79.0564 41.582 78.7904 40.826 78.7904 39.986C78.8184 39.146 79.0564 38.404 79.5044 37.76C79.9804 37.116 80.5544 36.57 81.2264 36.122C81.9264 35.674 82.6404 35.338 83.3684 35.114C83.4244 35.086 83.5364 35.072 83.7044 35.072C83.8444 35.072 84.0124 35.086 84.2084 35.114C84.4324 35.142 84.6844 35.184 84.9644 35.24C85.7764 35.408 86.1824 35.59 86.1824 35.786C86.1824 35.898 86.2524 36.066 86.3924 36.29C86.5604 36.486 86.7844 36.752 87.0644 37.088C87.6244 37.788 87.9044 38.418 87.9044 38.978C87.9044 39.734 87.6524 40.28 87.1484 40.616C86.6724 40.952 86.0844 41.12 85.3844 41.12H84.6284C84.4324 41.12 84.3064 41.148 84.2504 41.204C83.8864 42.548 83.0324 43.22 81.6884 43.22ZM81.4784 41.876C82.5424 41.876 83.0744 41.316 83.0744 40.196C83.0744 39.888 83.0604 39.44 83.0324 38.852C83.0044 38.264 82.9764 37.536 82.9484 36.668C81.1004 37.508 80.1624 38.614 80.1344 39.986V40.196C80.1344 40.644 80.2604 41.036 80.5124 41.372C80.7644 41.708 81.0864 41.876 81.4784 41.876ZM103.657 47.504C102.061 47.504 100.465 47.112 98.8693 46.328C97.3013 45.516 96.0133 44.466 95.0053 43.178C93.5773 41.358 92.8633 38.768 92.8633 35.408C92.8633 31.992 93.8993 29.206 95.9713 27.05C98.3513 24.586 100.913 23.354 103.657 23.354C107.157 23.354 110.097 25.034 112.477 28.394C112.533 28.45 112.561 28.52 112.561 28.604C112.561 28.968 111.567 29.808 109.579 31.124L108.235 32.384C107.675 32.916 107.087 33.196 106.471 33.224C106.331 33.224 105.981 32.902 105.421 32.258C104.861 31.614 104.273 31.292 103.657 31.292C103.013 31.292 102.481 31.516 102.061 31.964C101.641 32.412 101.333 32.958 101.137 33.602C100.941 34.218 100.843 34.806 100.843 35.366C100.843 35.982 100.913 36.612 101.053 37.256C101.221 37.872 101.501 38.404 101.893 38.852C102.313 39.272 102.901 39.482 103.657 39.482C104.329 39.482 104.931 39.104 105.463 38.348C105.939 37.676 106.289 37.382 106.513 37.466C106.821 37.662 107.213 37.928 107.689 38.264C108.193 38.572 108.795 38.922 109.495 39.314C110.083 39.594 110.671 39.874 111.259 40.154C111.847 40.434 112.323 40.686 112.687 40.91C113.079 41.134 113.233 41.33 113.149 41.498C112.197 43.57 110.881 45.096 109.201 46.076C107.549 47.028 105.701 47.504 103.657 47.504ZM100.591 45.572C100.703 45.572 100.843 45.46 101.011 45.236C101.151 45.068 101.263 44.886 101.347 44.69C101.459 44.494 101.571 44.298 101.683 44.102C101.067 43.934 100.493 43.64 99.9613 43.22C99.4573 42.8 98.9253 42.324 98.3653 41.792C98.1973 41.624 98.1133 41.414 98.1133 41.162C98.1133 40.966 98.1833 40.658 98.3233 40.238C98.4633 39.79 98.5193 39.454 98.4913 39.23C98.4913 38.978 98.0713 38.838 97.2313 38.81C96.6153 38.782 96.1953 38.628 95.9713 38.348C95.7473 38.068 95.6353 37.662 95.6353 37.13C95.6353 35.954 96.3213 35.016 97.6933 34.316C98.0573 34.176 98.4073 34.022 98.7433 33.854C99.1073 33.686 99.4713 33.518 99.8353 33.35C100.563 31.082 101.837 29.948 103.657 29.948C105.897 29.948 107.017 29.388 107.017 28.268C107.017 27.82 106.821 27.316 106.429 26.756C106.065 26.196 105.617 25.706 105.085 25.286C104.581 24.866 104.105 24.656 103.657 24.656C103.013 24.656 102.467 24.838 102.019 25.202C101.571 25.566 101.193 26.014 100.885 26.546C100.577 27.078 100.297 27.61 100.045 28.142C99.5133 29.318 99.0513 30.172 98.6593 30.704C98.4633 30.956 98.1553 31.082 97.7353 31.082C97.6513 31.082 97.5533 31.082 97.4413 31.082C97.3293 31.054 97.2033 31.026 97.0633 30.998C96.8953 30.942 96.7413 30.914 96.6013 30.914C96.4613 30.914 96.3213 30.914 96.1813 30.914C95.8453 30.914 95.5793 30.97 95.3833 31.082C95.1313 31.25 94.9073 31.628 94.7113 32.216C94.5433 32.776 94.4033 33.378 94.2913 34.022C94.2073 34.638 94.1653 35.1 94.1653 35.408C94.1653 37.732 94.7673 39.776 95.9713 41.54C97.1753 43.304 98.6733 44.634 100.465 45.53C100.493 45.53 100.507 45.544 100.507 45.572C100.535 45.572 100.563 45.572 100.591 45.572ZM107.521 45.404C107.717 45.404 107.983 45.264 108.319 44.984C108.655 44.704 108.991 44.382 109.327 44.018C109.663 43.626 109.943 43.248 110.167 42.884C110.419 42.52 110.545 42.254 110.545 42.086C110.545 41.862 110.363 41.61 109.999 41.33C109.663 41.022 109.257 40.728 108.781 40.448C108.305 40.168 107.843 39.944 107.395 39.776C106.975 39.58 106.667 39.482 106.471 39.482C106.443 40.49 106.233 41.19 105.841 41.582C105.813 41.61 105.645 41.722 105.337 41.918C105.057 42.086 104.637 42.324 104.077 42.632C104.917 42.632 105.561 42.982 106.009 43.682C106.149 43.878 106.261 44.074 106.345 44.27C106.429 44.466 106.527 44.676 106.639 44.9C106.947 45.236 107.241 45.404 107.521 45.404ZM120.261 46.748C119.561 46.72 118.791 46.636 117.951 46.496C117.139 46.356 116.411 46.076 115.767 45.656C115.123 45.236 114.689 44.634 114.465 43.85C114.437 43.71 114.409 43.528 114.381 43.304C114.381 43.08 114.381 42.786 114.381 42.422C114.381 41.89 114.395 41.246 114.423 40.49C114.451 39.706 114.507 38.796 114.591 37.76C114.871 33.224 115.039 30.172 115.095 28.604L114.381 28.562C113.933 28.534 113.723 28.296 113.751 27.848L114.003 24.362C114.059 23.942 114.297 23.746 114.717 23.774L115.431 23.816V23.396C115.459 23.284 115.473 23.172 115.473 23.06C115.473 22.948 115.473 22.836 115.473 22.724C115.473 21.884 115.277 21.1 114.885 20.372V20.33C114.885 20.162 114.955 20.022 115.095 19.91C115.263 19.77 115.431 19.714 115.599 19.742L118.833 20.12L123.075 20.288C123.523 20.288 123.733 20.512 123.705 20.96L123.453 24.362L124.419 24.446C124.895 24.502 125.091 24.74 125.007 25.16L124.587 27.722C124.503 28.17 124.069 28.394 123.285 28.394C123.089 28.394 122.865 28.38 122.613 28.352C122.389 28.324 122.165 28.282 121.941 28.226C121.829 29.346 121.703 30.438 121.563 31.502C121.451 32.566 121.339 33.63 121.227 34.694C121.059 37.13 120.975 38.95 120.975 40.154C120.975 40.518 120.975 40.826 120.975 41.078C121.003 41.302 121.031 41.47 121.059 41.582C121.115 41.61 121.325 41.652 121.689 41.708C122.053 41.736 122.557 41.778 123.201 41.834C123.677 41.89 123.873 42.128 123.789 42.548L123.411 44.69C123.439 44.83 123.453 44.97 123.453 45.11C123.453 45.25 123.453 45.376 123.453 45.488C123.453 46.132 123.215 46.538 122.739 46.706C122.655 46.734 121.829 46.748 120.261 46.748ZM120.345 45.446C120.821 45.39 121.283 45.11 121.731 44.606C122.179 44.074 122.417 43.57 122.445 43.094C121.913 43.038 121.479 42.982 121.143 42.926C120.835 42.87 120.611 42.814 120.471 42.758C119.939 42.506 119.701 41.918 119.757 40.994L120.009 34.652L120.681 27.554C120.737 27.078 120.975 26.868 121.395 26.924C121.423 26.952 121.563 26.994 121.815 27.05C122.067 27.078 122.263 27.092 122.403 27.092C123.215 27.092 123.635 26.63 123.663 25.706C123.607 25.706 123.467 25.734 123.243 25.79C123.019 25.818 122.823 25.832 122.655 25.832C122.151 25.832 121.899 25.608 121.899 25.16C121.899 25.076 121.927 24.922 121.983 24.698C122.151 24.054 122.235 23.48 122.235 22.976C122.235 21.94 121.829 21.422 121.017 21.422H119.589L116.943 21.17C117.083 21.394 117.223 21.604 117.363 21.8C117.531 21.996 117.671 22.192 117.783 22.388L119.421 23.816C119.981 24.432 120.261 24.95 120.261 25.37C120.261 25.51 120.177 25.748 120.009 26.084C119.869 26.42 119.603 26.84 119.211 27.344C118.399 28.408 117.993 29.108 117.993 29.444C117.993 29.724 118.273 30.256 118.833 31.04C119.421 31.88 119.715 32.426 119.715 32.678C119.715 33.294 119.281 33.602 118.413 33.602C117.909 33.602 117.125 33.392 116.061 32.972L115.851 36.5L115.767 37.256V37.508C115.767 37.704 115.809 37.83 115.893 37.886C115.949 37.858 116.033 37.844 116.145 37.844C116.733 37.844 117.237 38.11 117.657 38.642C118.105 39.174 118.441 39.776 118.665 40.448C118.917 41.12 119.043 41.68 119.043 42.128C119.043 43.024 118.511 43.472 117.447 43.472C116.831 43.472 116.201 43.234 115.557 42.758C115.697 43.71 116.341 44.438 117.489 44.942C118.497 45.418 119.449 45.586 120.345 45.446ZM136.798 47.462C135.174 47.462 133.69 47.14 132.346 46.496C131.03 45.852 129.896 44.97 128.944 43.85C127.992 42.73 127.264 41.47 126.76 40.07C126.256 38.642 126.004 37.158 126.004 35.618C126.004 32.118 127.32 29.052 129.952 26.42C132.024 24.348 134.362 23.312 136.966 23.312C139.234 23.312 141.166 23.858 142.762 24.95C144.358 26.042 145.576 27.484 146.416 29.276C147.256 31.04 147.676 32.958 147.676 35.03C147.676 35.478 147.648 35.94 147.592 36.416C147.564 36.864 147.326 37.06 146.878 37.004C144.638 36.696 142.888 36.472 141.628 36.332C140.396 36.192 139.668 36.108 139.444 36.08C139.22 36.052 138.646 36.024 137.722 35.996C136.798 35.968 135.538 35.926 133.942 35.87C133.914 35.982 133.9 36.108 133.9 36.248C133.9 36.388 133.9 36.514 133.9 36.626C133.9 38.978 134.866 40.154 136.798 40.154C137.554 40.154 138.156 39.804 138.604 39.104C139.108 38.292 139.472 37.914 139.696 37.97C140.144 38.054 140.676 38.152 141.292 38.264C141.936 38.348 142.692 38.46 143.56 38.6C143.896 38.628 144.288 38.726 144.736 38.894C145.184 39.062 145.576 39.174 145.912 39.23C146.36 39.258 146.584 39.566 146.584 40.154C146.584 41.554 145.744 43.038 144.064 44.606C142.02 46.51 139.598 47.462 136.798 47.462ZM133.858 45.53C134.306 45.53 134.754 45.18 135.202 44.48C135.734 43.64 136.224 43.01 136.672 42.59C137.12 42.17 137.638 41.848 138.226 41.624C138.842 41.4 139.626 41.176 140.578 40.952C142.202 40.588 143.014 40.336 143.014 40.196C143.014 40.028 142.79 39.888 142.342 39.776C141.894 39.636 141.418 39.524 140.914 39.44C140.438 39.356 140.144 39.314 140.032 39.314C139.64 40.098 139.136 40.686 138.52 41.078C137.904 41.442 137.162 41.568 136.294 41.456C136.182 41.428 135.86 41.442 135.328 41.498C134.824 41.554 134.292 41.61 133.732 41.666C133.2 41.722 132.85 41.75 132.682 41.75C131.534 41.75 130.96 40.98 130.96 39.44C130.96 38.348 131.254 37.242 131.842 36.122C132.374 35.058 132.878 34.526 133.354 34.526C133.634 34.526 133.928 34.526 134.236 34.526C134.544 34.498 134.838 34.484 135.118 34.484C136.21 34.484 137.386 34.526 138.646 34.61C139.906 34.694 141.222 34.848 142.594 35.072C142.874 35.1 143.196 35.03 143.56 34.862C143.952 34.694 144.288 34.47 144.568 34.19C144.848 33.91 144.988 33.658 144.988 33.434C144.988 33.266 144.932 33.126 144.82 33.014C144.148 32.342 143.63 31.768 143.266 31.292C142.93 30.816 142.762 30.396 142.762 30.032C142.762 29.976 142.776 29.85 142.804 29.654C142.832 29.43 142.874 29.136 142.93 28.772C142.958 28.688 142.972 28.604 142.972 28.52C142.972 28.436 142.972 28.366 142.972 28.31C142.972 28.002 142.916 27.75 142.804 27.554C142.412 26.826 141.726 26.182 140.746 25.622C139.766 25.062 138.772 24.74 137.764 24.656C137.26 24.6 136.812 24.866 136.42 25.454C136.028 26.042 135.636 26.644 135.244 27.26C135.216 27.372 135.188 27.47 135.16 27.554C135.16 27.638 135.16 27.736 135.16 27.848C135.16 28.352 135.398 28.772 135.874 29.108C136.35 29.444 136.812 29.612 137.26 29.612C138.072 29.584 138.912 29.738 139.78 30.074C140.844 30.494 141.376 31.068 141.376 31.796C141.376 32.272 141.194 32.734 140.83 33.182C140.494 33.602 140.158 33.798 139.822 33.77L133.942 33.266C133.326 33.042 132.696 32.874 132.052 32.762C131.408 32.622 130.764 32.552 130.12 32.552C128.916 32.552 128.146 32.818 127.81 33.35C127.474 33.882 127.306 34.652 127.306 35.66C127.306 37.676 127.768 39.538 128.692 41.246C129.644 42.926 130.904 44.2 132.472 45.068C133.032 45.376 133.494 45.53 133.858 45.53ZM139.024 32.384C138.716 31.404 138.156 30.914 137.344 30.914C136.364 30.914 135.622 31.292 135.118 32.048L139.024 32.384ZM154.991 47.042C153.787 47.042 152.821 46.832 152.093 46.412C151.393 45.964 150.875 45.376 150.539 44.648C150.231 43.92 150.021 43.108 149.909 42.212C149.825 41.288 149.783 40.336 149.783 39.356V28.856C149.783 27.428 149.713 26.602 149.573 26.378C149.405 26.07 149.223 25.804 149.027 25.58C148.831 25.328 148.663 25.076 148.523 24.824C148.411 24.656 148.341 24.516 148.313 24.404C148.285 24.264 148.271 24.152 148.271 24.068C148.271 23.564 149.377 23.368 151.589 23.48L157.133 23.774C157.609 23.83 157.833 24.04 157.805 24.404L157.217 33.812L157.553 37.634C157.525 37.858 157.525 38.124 157.553 38.432C157.581 38.74 157.609 39.076 157.637 39.44C157.721 40.196 157.875 40.574 158.099 40.574C158.351 40.574 158.547 40.21 158.687 39.482L158.561 37.34L158.897 31.544L158.561 23.858C158.561 23.69 158.617 23.536 158.729 23.396C158.869 23.256 159.037 23.186 159.233 23.186C160.269 23.298 161.081 23.382 161.669 23.438C162.285 23.494 162.663 23.522 162.803 23.522C162.943 23.522 163.377 23.494 164.105 23.438C164.833 23.382 165.841 23.298 167.129 23.186H167.255C167.647 23.186 167.843 23.368 167.843 23.732C167.843 23.788 167.829 23.83 167.801 23.858C167.101 24.81 166.723 25.384 166.667 25.58C166.639 25.664 166.611 25.958 166.583 26.462C166.583 26.966 166.583 27.68 166.583 28.604V43.346L167.549 45.95C167.633 46.146 167.647 46.286 167.591 46.37C167.507 46.482 167.395 46.538 167.255 46.538C166.975 46.51 166.639 46.482 166.247 46.454C165.883 46.426 165.463 46.384 164.987 46.328C164.315 46.244 163.699 46.202 163.139 46.202C162.551 46.202 161.935 46.286 161.291 46.454C160.647 46.594 160.269 46.664 160.157 46.664C159.793 46.664 159.569 46.132 159.485 45.068C159.457 44.76 159.429 44.48 159.401 44.228C159.401 43.976 159.415 43.766 159.443 43.598C159.611 43.318 159.821 43.178 160.073 43.178C160.493 43.178 160.689 43.444 160.661 43.976L160.577 45.32L163.265 45.026C164.189 45.11 164.651 44.718 164.651 43.85C164.651 43.206 164.315 42.534 163.643 41.834C162.691 40.854 162.215 40 162.215 39.272C162.215 38.488 162.719 37.914 163.727 37.55C163.979 37.522 164.245 37.494 164.525 37.466C164.805 37.41 165.085 37.34 165.365 37.256L165.407 33.056C164.035 32.356 163.349 31.04 163.349 29.108C163.349 27.26 163.993 25.734 165.281 24.53L161.837 25.58C161.193 25.216 160.801 25.034 160.661 25.034C160.157 25.034 159.961 25.804 160.073 27.344C160.269 27.848 160.465 28.352 160.661 28.856C160.885 29.36 161.095 29.864 161.291 30.368C161.599 31.152 161.753 31.978 161.753 32.846C161.753 33.21 161.725 33.644 161.669 34.148C161.641 34.652 161.599 35.226 161.543 35.87C161.543 37.326 161.151 38.656 160.367 39.86C160.115 40.224 159.877 40.546 159.653 40.826C159.457 41.078 159.261 41.274 159.065 41.414C158.813 41.582 158.505 41.666 158.141 41.666C157.161 41.666 156.657 40.854 156.629 39.23C156.629 39.034 156.237 38.684 155.453 38.18C154.585 37.648 154.095 37.242 153.983 36.962C153.535 35.898 153.157 34.974 152.849 34.19C152.569 33.406 152.429 32.72 152.429 32.132C152.429 31.04 152.891 30.312 153.815 29.948C154.095 29.836 154.459 29.752 154.907 29.696C155.355 29.64 155.887 29.626 156.503 29.654C156.475 29.43 156.461 29.192 156.461 28.94C156.489 28.66 156.517 28.338 156.545 27.974L156.629 26.462C156.629 25.622 156.405 25.188 155.957 25.16C153.997 24.992 152.891 24.908 152.639 24.908C151.911 24.908 151.477 24.992 151.337 25.16C151.169 25.412 151.071 26.168 151.043 27.428C151.043 27.624 151.029 27.862 151.001 28.142C151.001 28.394 151.001 28.66 151.001 28.94C151.001 29.22 151.001 29.528 151.001 29.864C151.029 30.172 151.043 30.508 151.043 30.872L151.085 32.804V39.356C151.533 38.908 152.079 38.684 152.723 38.684C153.703 38.684 154.459 39.076 154.991 39.86C155.523 40.616 155.789 41.442 155.789 42.338C155.789 43.066 155.565 43.78 155.117 44.48L154.403 45.53C154.403 45.642 154.599 45.698 154.991 45.698C155.607 45.698 155.957 45.684 156.041 45.656C156.265 45.6 156.503 45.46 156.755 45.236C157.007 45.012 157.287 44.746 157.595 44.438C157.623 44.41 157.651 44.396 157.679 44.396C157.735 44.396 157.763 44.55 157.763 44.858C157.763 45.558 157.455 46.104 156.839 46.496C156.251 46.86 155.635 47.042 154.991 47.042ZM171.011 46.958C170.563 46.958 170.339 46.748 170.339 46.328C170.339 42.968 170.339 40.392 170.339 38.6C170.339 36.78 170.325 35.744 170.297 35.492C170.269 34.932 170.213 33.896 170.129 32.384C170.045 30.872 169.905 28.87 169.709 26.378C169.709 26.154 169.443 25.818 168.911 25.37C168.407 24.922 168.127 24.572 168.071 24.32C168.071 24.124 168.141 23.956 168.281 23.816C168.393 23.676 168.533 23.606 168.701 23.606C169.121 23.634 169.541 23.662 169.961 23.69C170.381 23.69 170.801 23.69 171.221 23.69C172.705 23.69 174.203 23.606 175.715 23.438H175.841C176.177 23.438 176.345 23.578 176.345 23.858C176.345 24.39 176.009 24.656 175.337 24.656C174.917 24.684 174.371 24.698 173.699 24.698C173.055 24.698 172.285 24.712 171.389 24.74C171.361 24.74 171.291 24.74 171.179 24.74C171.067 24.74 170.913 24.726 170.717 24.698C170.101 24.698 169.793 24.768 169.793 24.908C169.793 25.076 170.171 25.44 170.927 26L171.011 27.764C171.907 26.616 172.705 26.042 173.405 26.042C174.665 26.042 175.351 27.526 175.463 30.494C175.799 29.682 176.401 29.276 177.269 29.276C178.193 29.276 179.271 29.71 180.503 30.578L180.293 24.194C179.677 24.39 179.131 24.74 178.655 25.244C178.207 25.72 177.787 26.35 177.395 27.134C177.283 27.386 177.129 27.512 176.933 27.512C176.625 27.512 176.471 27.302 176.471 26.882C176.471 26.798 176.499 26.672 176.555 26.504C176.695 26.112 177.031 25.398 177.563 24.362C178.459 23.41 179.551 22.878 180.839 22.766H180.965C181.357 22.766 181.553 22.976 181.553 23.396C181.525 23.704 181.511 24.012 181.511 24.32C181.511 24.6 181.511 24.894 181.511 25.202C181.511 26.322 181.539 27.372 181.595 28.352C181.679 29.332 181.763 30.27 181.847 31.166V31.292C181.847 31.656 181.637 31.838 181.217 31.838C180.293 31.866 179.607 31.978 179.159 32.174C178.711 32.37 178.417 32.706 178.277 33.182C178.137 33.63 178.067 34.288 178.067 35.156C178.067 35.352 178.067 35.646 178.067 36.038C178.067 36.402 178.053 36.864 178.025 37.424C177.997 37.984 177.969 38.488 177.941 38.936C177.941 39.356 177.941 39.72 177.941 40.028C177.969 41.008 178.011 41.988 178.067 42.968C178.151 43.92 178.249 44.872 178.361 45.824V45.908C178.361 46.216 178.151 46.412 177.731 46.496L174.707 46.958H171.011ZM171.641 45.614L174.665 45.488C174.777 45.124 174.875 44.774 174.959 44.438C175.043 44.074 175.141 43.71 175.253 43.346C175.617 42.366 176.177 41.89 176.933 41.918L176.765 37.34C176.037 35.94 175.575 34.666 175.379 33.518C175.351 33.798 175.281 34.316 175.169 35.072C175.057 35.828 174.903 36.64 174.707 37.508C174.539 38.376 174.343 39.132 174.119 39.776C173.923 40.392 173.713 40.7 173.489 40.7C172.901 40.7 172.229 39.482 171.473 37.046C171.417 37.662 171.375 38.278 171.347 38.894C171.319 39.482 171.305 40.084 171.305 40.7C171.305 41.652 171.333 42.534 171.389 43.346C171.445 44.158 171.529 44.914 171.641 45.614Z" fill="black"/>
</svg>
