<svg width="64" height="64" viewBox="0 0 64 64" fill="none" xmlns="http://www.w3.org/2000/svg">
<rect x="1.5" y="1.5" width="61" height="61" fill="white" stroke="black" stroke-width="3"/>
<path d="M26 28C28 22.3333 32.5 11 34.5 11H49.5C50.8333 15.1667 53.4 24.4 53 28V41.5H10.5L8.5 34.5L10.5 28H26Z" fill="#DC7313"/>
<path d="M53 28C53.4 24.4 50.8333 15.1667 49.5 11C45.3333 11 36.5 11 34.5 11C32.5 11 28 22.3333 26 28H53ZM53 28H10.5L8.5 34.5M53 28V41.5H10.5L8.5 34.5M8.5 34.5H6V23.5" stroke="#DC7313" stroke-width="2"/>
<circle cx="16" cy="42" r="7" fill="white" stroke="black" stroke-width="4"/>
<path d="M34 14H49L51 25H29.5L34 14Z" fill="#D9D9D9"/>
<circle cx="45.5" cy="38.5" r="10.5" fill="white" stroke="black" stroke-width="4"/>
<circle cx="45.5" cy="38.5" r="5.5" fill="black"/>
</svg>
